<?xml version="1.0" standalone="no"?>
<!DOCTYPE svg PUBLIC "-//W3C//DTD SVG 20010904//EN"
 "http://www.w3.org/TR/2001/REC-SVG-20010904/DTD/svg10.dtd">
<svg version="1.0" xmlns="http://www.w3.org/2000/svg"
 width="500.000000pt" height="500.000000pt" viewBox="0 0 500.000000 500.000000"
 preserveAspectRatio="xMidYMid meet">
<metadata>
Created by potrace 1.14, written by Peter Selinger 2001-2017
</metadata>
<g transform="translate(0.000000,500.000000) scale(0.100000,-0.100000)"
fill="#000000" stroke="none">
<path d="M2084 4626 c-18 -13 -19 -28 -19 -205 0 -139 3 -193 13 -203 7 -7 43
-13 88 -14 41 -1 77 -4 79 -6 2 -2 5 -44 6 -93 l2 -90 -44 -9 c-289 -57 -511
-144 -719 -282 l-64 -42 -17 26 c-9 15 -27 37 -39 50 l-22 23 21 23 c12 12 21
28 21 35 0 21 -154 201 -172 201 -9 0 -34 -15 -55 -32 -22 -18 -56 -46 -78
-63 -21 -16 -45 -37 -54 -46 -9 -8 -58 -50 -108 -93 -51 -42 -93 -84 -93 -92
0 -22 152 -203 171 -203 8 -1 23 5 33 12 15 11 24 7 67 -37 43 -43 48 -51 36
-65 -8 -9 -27 -31 -43 -49 -46 -53 -150 -201 -179 -256 -15 -28 -40 -73 -55
-101 -87 -159 -163 -424 -185 -644 -7 -75 -7 -310 0 -361 23 -157 31 -202 39
-235 53 -217 155 -448 271 -614 183 -262 410 -460 689 -601 195 -99 411 -165
611 -187 88 -9 340 -10 420 0 380 44 757 213 1020 458 22 21 49 46 60 56 128
118 291 347 375 528 39 85 108 273 115 318 3 17 10 48 16 68 37 143 52 441 29
609 -18 133 -21 152 -32 179 -5 14 -9 27 -8 29 3 6 -13 71 -32 132 -78 244
-215 481 -391 677 l-20 22 44 45 c39 42 44 45 60 30 25 -23 50 -11 91 44 21
26 48 58 61 72 13 14 31 37 41 52 20 30 21 29 -65 100 -24 20 -100 84 -169
142 -69 58 -132 106 -141 106 -17 0 -179 -182 -179 -201 0 -5 9 -18 20 -29 26
-26 26 -28 -12 -67 -18 -18 -27 -33 -20 -33 7 0 12 -4 12 -10 0 -15 -38 3
-116 53 -178 115 -434 212 -666 251 l-38 7 -1 62 c-1 74 1 120 7 126 2 3 33 4
69 4 103 -1 102 -2 101 222 -1 173 -2 188 -20 201 -29 21 -803 21 -832 0z
m666 -996 c89 -16 165 -35 178 -46 2 -1 -27 -98 -64 -216 -96 -308 -144 -461
-148 -478 -12 -45 -127 -404 -131 -408 -2 -2 -3 183 -3 410 1 299 -2 420 -11
436 -6 12 -24 28 -39 36 -23 12 -32 12 -59 1 -17 -7 -36 -22 -42 -34 -8 -13
-11 -177 -11 -506 l0 -487 -34 -40 c-19 -21 -37 -55 -40 -73 -8 -41 8 -107 30
-125 8 -7 11 -16 7 -19 -5 -3 -51 -55 -103 -116 -52 -60 -101 -117 -109 -126
-9 -9 -32 -35 -51 -58 -19 -23 -48 -56 -63 -74 -164 -184 -199 -229 -190 -238
7 -7 30 12 69 57 32 37 64 72 69 78 6 6 53 60 105 121 52 60 101 116 108 124
7 7 52 58 99 112 47 55 89 99 95 99 5 0 19 -5 31 -12 12 -6 37 -10 57 -10 34
2 48 -11 280 -243 205 -205 249 -245 273 -245 37 0 87 49 87 85 0 30 -14 46
-310 344 -97 97 -175 182 -174 189 1 6 2 15 3 20 2 12 1147 8 1163 -5 19 -15
98 -13 98 3 0 7 8 10 20 7 19 -5 20 -11 15 -82 -3 -42 -7 -87 -10 -101 -2 -14
-6 -42 -9 -62 -28 -188 -142 -465 -243 -593 -4 -5 -25 -33 -46 -61 -63 -83
-226 -235 -322 -300 -496 -337 -1121 -344 -1621 -19 -361 234 -601 622 -652
1050 -9 77 -9 274 0 345 51 406 280 789 606 1012 110 75 107 74 217 127 136
65 261 105 399 126 22 3 41 7 43 9 2 2 77 4 166 4 114 0 193 -5 267 -18z"/>
<path d="M2489 3600 c-1 -5 -1 -21 -1 -35 0 -47 2 -55 16 -55 12 0 15 33 7 93
-1 11 -21 9 -22 -3z"/>
<path d="M1494 3189 c-7 -12 44 -69 63 -69 22 0 15 18 -18 50 -36 34 -35 34
-45 19z"/>
<path d="M1082 2190 c5 -21 92 -21 96 0 2 12 -9 15 -48 15 -40 0 -50 -3 -48
-15z"/>
<path d="M1517 1227 c-19 -21 -24 -34 -17 -41 11 -11 70 39 70 61 0 22 -23 13
-53 -20z"/>
<path d="M3434 1249 c-9 -16 53 -76 66 -63 6 6 0 20 -20 42 -32 35 -36 37 -46
21z"/>
<path d="M2488 858 c-6 -17 -1 -78 7 -86 11 -12 23 20 20 56 -2 36 -18 54 -27
30z"/>
</g>
</svg>
